nColumns=19
nRows=103
DataType=double
version=3
OpenSimVersion=4.1
endheader
time	ground_force_1_vx	ground_force_1_vy	ground_force_1_vz	ground_force_1_px	ground_force_1_py	ground_force_1_pz	ground_force_1_mx	ground_force_1_my	ground_force_1_mz	ground_force_2_vx	ground_force_2_vy	ground_force_2_vz	ground_force_2_px	ground_force_2_py	ground_force_2_pz	ground_force_2_mx	ground_force_2_my	ground_force_2_mz
0	4.41045	173.117	1.37212	0.183376	0.006	-0.149952	0	-0.088893	0	0	0	0	0.741677	0	-0.252008	0	0	0
0.01	-2.6244	191.286	0.363873	0.189164	0.006	-0.149621	0	-0.106038	0	0	0	0	0.741677	0	-0.252008	0	0	0
0.02	-10.3553	213.399	-0.848554	0.196027	0.006	-0.149291	0	-0.117471	0	0	0	0	0.741677	0	-0.252008	0	0	0
0.03	-18.6517	239.46	-2.25918	0.202675	0.006	-0.149034	0	-0.118035	0	0	0	0	0.741677	0	-0.252008	0	0	0
0.04	-27.3587	269.226	-3.84724	0.208908	0.006	-0.148852	0	-0.103551	0	0	0	0	0.741677	0	-0.252008	0	0	0
0.05	-36.2731	302.208	-5.57993	0.214606	0.006	-0.148738	0	-0.072114	0	0	0	0	0.741677	0	-0.252008	0	0	0
0.06	-45.1451	337.687	-7.41994	0.219712	0.006	-0.148683	0	-0.024915	0	0	0	0	0.741677	0	-0.252008	0	0	0
0.07	-53.6936	374.798	-9.3379	0.224219	0.006	-0.148671	0	0.034245	0	0	0	0	0.741677	0	-0.252008	0	0	0
0.08	-61.6507	412.65	-11.3145	0.228156	0.006	-0.14869	0	0.100101	0	0	0	0	0.741677	0	-0.252008	0	0	0
0.09	-68.7858	450.397	-13.3284	0.231575	0.006	-0.148726	0	0.16714	0	0	0	0	0.741677	0	-0.252008	0	0	0
0.1	-74.8976	487.224	-15.3492	0.23453	0.006	-0.14877	0	0.230526	0	0	0	0	0.741677	0	-0.252008	0	0	0
0.11	-79.8258	522.324	-17.3398	0.237079	0.006	-0.148817	0	0.286481	0	0	0	0	0.741677	0	-0.252008	0	0	0
0.12	-83.4624	554.912	-19.2569	0.239282	0.006	-0.148863	0	0.332407	0	0	0	0	0.741677	0	-0.252008	0	0	0
0.13	-85.7538	584.247	-21.0511	0.2412	0.006	-0.148904	0	0.36671	0	0	0	0	0.741677	0	-0.252008	0	0	0
0.14	-86.7028	609.676	-22.6716	0.242895	0.006	-0.148938	0	0.388451	0	0	0	0	0.741677	0	-0.252008	0	0	0
0.15	-86.364	630.683	-24.07	0.244428	0.006	-0.148965	0	0.397225	0	0	0	0	0.741677	0	-0.252008	0	0	0
0.16	-84.8342	646.918	-25.2066	0.245854	0.006	-0.148984	0	0.392899	0	0	0	0	0.741677	0	-0.252008	0	0	0
0.17	-82.2412	658.214	-26.0548	0.247226	0.006	-0.148993	0	0.375242	0	0	0	0	0.741677	0	-0.252008	0	0	0
0.18	-78.7317	664.584	-26.602	0.248588	0.006	-0.148994	0	0.343849	0	0	0	0	0.741677	0	-0.252008	0	0	0
0.19	-74.4627	666.221	-26.8494	0.249982	0.006	-0.148983	0	0.298152	0	0	0	0	0.741677	0	-0.252008	0	0	0
0.2	-69.5941	663.479	-26.8121	0.251442	0.006	-0.148962	0	0.237479	0	0	0	0	0.741677	0	-0.252008	0	0	0
0.21	-64.2838	656.849	-26.5181	0.253002	0.006	-0.148927	0	0.161368	0	0	0	0	0.741677	0	-0.252008	0	0	0
0.22	-58.6829	646.918	-26.0053	0.254694	0.006	-0.148879	0	0.069711	0	0	0	0	0.741677	0	-0.252008	0	0	0
0.23	-52.9313	634.329	-25.3182	0.256546	0.006	-0.148814	0	-0.037195	0	0	0	0	0.741677	0	-0.252008	0	0	0
0.24	-47.1534	619.752	-24.5033	0.258583	0.006	-0.148732	0	-0.158714	0	0	0	0	0.741677	0	-0.252008	0	0	0
0.25	-41.4549	603.855	-23.6068	0.260827	0.006	-0.148631	0	-0.293909	0	0	0	0	0.741677	0	-0.252008	0	0	0
0.26	-35.9222	587.28	-22.6714	0.263296	0.006	-0.148512	0	-0.441585	0	0	0	0	0.741677	0	-0.252008	0	0	0
0.27	-30.6225	570.631	-21.7337	0.266001	0.006	-0.148373	0	-0.600398	0	0	0	0	0.741677	0	-0.252008	0	0	0
0.28	-25.6051	554.463	-20.8226	0.268947	0.006	-0.148216	0	-0.76905	0	0	0	0	0.741677	0	-0.252008	0	0	0
0.29	-20.9025	539.269	-19.959	0.272134	0.006	-0.148043	0	-0.946441	0	0	0	0	0.741677	0	-0.252008	0	0	0
0.3	-16.5323	525.482	-19.1599	0.275554	0.006	-0.147857	0	-1.13166	0	0	0	0	0.741677	0	-0.252008	0	0	0
0.31	-12.4993	513.466	-18.4419	0.279193	0.006	-0.147659	0	-1.32385	0	0	0	0	0.741677	0	-0.252008	0	0	0
0.32	-8.79531	503.515	-17.8239	0.283028	0.006	-0.147451	0	-1.52197	0	0	0	0	0.741677	0	-0.252008	0	0	0
0.33	-5.4006	495.854	-17.3286	0.287027	0.006	-0.147235	0	-1.7246	0	0	0	0	0.741677	0	-0.252008	0	0	0
0.34	-2.2845	490.636	-16.9815	0.291152	0.006	-0.147012	0	-1.92995	0	0	0	0	0.741677	0	-0.252008	0	0	0
0.35	0.593801	487.947	-16.8092	0.295362	0.006	-0.146781	0	-2.13579	0	0	0	0	0.741677	0	-0.252008	0	0	0
0.36	3.28316	487.805	-16.8361	0.29961	0.006	-0.146541	0	-2.33954	0	0	0	0	0.741677	0	-0.252008	0	0	0
0.37	5.83769	490.17	-17.0824	0.303852	0.006	-0.146291	0	-2.5384	0	0	0	0	0.741677	0	-0.252008	0	0	0
0.38	8.31552	494.939	-17.5607	0.308047	0.006	-0.146034	0	-2.72944	0	0	0	0	0.741677	0	-0.252008	0	0	0
0.39	10.7782	501.959	-18.2745	0.312158	0.006	-0.14577	0	-2.90958	0	0	0	0	0.741677	0	-0.252008	0	0	0
0.4	13.2892	511.025	-19.217	0.316154	0.006	-0.145504	0	-3.07569	0	0	0	0	0.741677	0	-0.252008	0	0	0
0.41	15.9111	521.893	-20.3716	0.320013	0.006	-0.145238	0	-3.22462	0	0	0	0	0.741677	0	-0.252008	0	0	0
0.42	18.7023	534.286	-21.7118	0.323719	0.006	-0.144977	0	-3.35329	0	0	0	0	0.741677	0	-0.252008	0	0	0
0.43	21.7137	547.892	-23.202	0.327269	0.006	-0.144728	0	-3.45886	0	0	0	0	0.741677	0	-0.252008	0	0	0
0.44	24.986	562.364	-24.7988	0.330662	0.006	-0.144494	0	-3.53881	0	0	0	0	0.741677	0	-0.252008	0	0	0
0.45	28.5472	577.322	-26.4526	0.333906	0.006	-0.144281	0	-3.59092	0	0	0	0	0.741677	0	-0.252008	0	0	0
0.46	32.4095	592.355	-28.1095	0.33701	0.006	-0.144092	0	-3.6132	0	0	0	0	0.741677	0	-0.252008	0	0	0
0.47	36.5683	607.023	-29.7129	0.33999	0.006	-0.143932	0	-3.60377	0	0	0	0	0.741677	0	-0.252008	0	0	0
0.48	41.0052	620.864	-31.2037	0.342859	0.006	-0.143801	0	-3.56106	0	0	0	0	0.741677	0	-0.252008	0	0	0
0.49	45.6913	633.396	-32.5213	0.34563	0.006	-0.143703	0	-3.48419	0	0	0	0	0.741677	0	-0.252008	0	0	0
0.5	50.5874	644.127	-33.6056	0.348313	0.006	-0.143638	0	-3.37332	0	0	0	0	0.741677	0	-0.252008	0	0	0
0.51	55.6403	652.562	-34.3973	0.350918	0.006	-0.143607	0	-3.22996	0	0	0	0	0.741677	0	-0.252008	0	0	0
0.52	60.7797	658.213	-34.8396	0.353454	0.006	-0.14361	0	-3.0572	0	0	0	0	0.741677	0	-0.252008	0	0	0
0.53	65.9158	660.603	-34.8808	0.35593	0.006	-0.143649	0	-2.85971	0	6.43902	26.0974	-2.88762	0.755376	0.006	-0.256801	0	0.752345	0
0.54	70.9381	659.282	-34.4787	0.358357	0.006	-0.143722	0	-2.64337	0	6.61669	40.8015	-3.03959	0.785654	0.006	-0.266762	0	0.752459	0
0.55	75.7147	653.838	-33.6044	0.360746	0.006	-0.14383	0	-2.41475	0	6.24299	58.5038	-3.1692	0.803962	0.006	-0.272052	0	0.739202	0
0.56	80.0971	643.927	-32.246	0.36311	0.006	-0.143969	0	-2.18073	0	5.10987	79.1537	-3.25734	0.816766	0.006	-0.275183	0	0.715619	0
0.57	83.926	629.295	-30.4121	0.365461	0.006	-0.144139	0	-1.94809	0	2.99608	102.525	-3.27656	0.826715	0.006	-0.277167	0	0.68212	0
0.58	87.0364	609.812	-28.135	0.36781	0.006	-0.144334	0	-1.7231	0	-0.22383	128.348	-3.18438	0.835106	0.006	-0.278506	0	0.639436	0
0.59	89.2664	585.485	-25.4721	0.370164	0.006	-0.144551	0	-1.511	0	-4.53615	156.42	-2.92287	0.84262	0.006	-0.279478	0	0.589525	0
0.6	90.467	556.472	-22.5039	0.372533	0.006	-0.144781	0	-1.31553	0	-9.86078	186.564	-2.42046	0.849617	0.006	-0.280245	0	0.535356	0
0.61	90.512	523.081	-19.3309	0.374923	0.006	-0.145017	0	-1.13867	0	-16.093	218.558	-1.59921	0.856285	0.006	-0.280899	0	0.480521	0
0.62	89.3056	485.776	-16.0681	0.377344	0.006	-0.14525	0	-0.980751	0	-23.0921	252.1	-0.385163	0.862716	0.006	-0.281498	0	0.428305	0
0.63	86.792	445.171	-12.8365	0.379805	0.006	-0.145469	0	-0.840827	0	-30.6752	286.798	1.27645	0.868945	0.006	-0.282075	0	0.379998	0
0.64	82.9664	402.024	-9.75509	0.382322	0.006	-0.145667	0	-0.717162	0	-38.6259	322.168	3.40482	0.874978	0.006	-0.282648	0	0.334504	0
0.65	77.8835	357.223	-6.93249	0.38492	0.006	-0.145833	0	-0.607795	0	-46.6963	357.658	5.98301	0.880804	0.006	-0.283225	0	0.289979	0
0.66	71.6613	311.764	-4.4588	0.387631	0.006	-0.145963	0	-0.510737	0	-54.6225	392.719	8.97052	0.886412	0.006	-0.28381	0	0.245286	0
0.67	64.492	266.707	-2.3967	0.390508	0.006	-0.146047	0	-0.424169	0	-62.1635	426.893	12.3091	0.891799	0.006	-0.284405	0	0.200119	0
0.68	56.6423	223.113	-0.772258	0.393624	0.006	-0.146078	0	-0.347016	0	-69.1162	459.819	15.915	0.896962	0.006	-0.285008	0	0.154326	0
0.69	48.4361	181.973	0.426058	0.397094	0.006	-0.146045	0	-0.27874	0	-75.3	491.177	19.6731	0.901897	0.006	-0.285612	0	0.107779	0
0.7	40.2238	144.133	1.24272	0.401102	0.006	-0.14593	0	-0.218996	0	-80.5588	520.623	23.4491	0.906602	0.006	-0.286209	0	0.060793	0
0.71	32.341	110.238	1.74508	0.405973	0.006	-0.145698	0	-0.167786	0	-84.7754	547.775	27.1084	0.91108	0.006	-0.286792	0	0.01469	0
0.72	25.0694	80.6992	2.00645	0.412322	0.006	-0.145277	0	-0.125622	0	-87.8777	572.236	30.5276	0.915339	0.006	-0.287358	0	-0.028168	0
0.73	18.6088	55.6828	2.09199	0.421462	0.006	-0.144513	0	-0.093978	0	-89.8436	593.627	33.6015	0.919401	0.006	-0.287904	0	-0.064461	0
0.74	13.0641	35.1312	2.05332	0.436705	0.006	-0.143001	0	-0.076852	0	-90.6977	611.626	36.2496	0.92329	0.006	-0.288429	0	-0.090178	0
0.75	0	0	0	0.466199	0	-0.140172	0	0	0	-90.5035	625.996	38.4179	0.927039	0.006	-0.288934	0	-0.100974	0
0.76	0	0	0	0.492561	0	-0.140225	0	0	0	-89.3553	636.599	40.0795	0.930681	0.006	-0.289421	0	-0.092672	0
0.77	0	0	0	0.518924	0	-0.140277	0	0	0	-87.3687	643.411	41.2329	0.934251	0.006	-0.289892	0	-0.06189	0
0.78	0	0	0	0.545286	0	-0.140329	0	0	0	-84.6723	646.534	41.8993	0.937781	0.006	-0.29035	0	-0.006624	0
0.79	0	0	0	0.571648	0	-0.140381	0	0	0	-81.399	646.196	42.1169	0.941299	0.006	-0.290797	0	0.073645	0
0.8	0	0	0	0.59801	0	-0.140433	0	0	0	-77.678	642.732	41.9339	0.94483	0.006	-0.291233	0	0.178116	0
0.81	0	0	0	0.624373	0	-0.140485	0	0	0	-73.63	636.561	41.403	0.948388	0.006	-0.29166	0	0.3049	0
0.82	0	0	0	0.650735	0	-0.140538	0	0	0	-69.3627	628.153	40.5777	0.951983	0.006	-0.292076	0	0.451471	0
0.83	0	0	0	0.677097	0	-0.14059	0	0	0	-64.9694	617.996	39.5099	0.955617	0.006	-0.29248	0	0.615174	0
0.84	0	0	0	0.703459	0	-0.140642	0	0	0	-60.528	606.576	38.2484	0.959285	0.006	-0.292867	0	0.793597	0
0.85	0	0	0	0.729821	0	-0.140694	0	0	0	-56.1015	594.364	36.8379	0.962974	0.006	-0.293234	0	0.984768	0
0.86	0	0	0	0.756184	0	-0.140746	0	0	0	-51.7385	581.803	35.3201	0.966668	0.006	-0.293578	0	1.18711	0
0.87	0	0	0	0.782546	0	-0.140799	0	0	0	-47.4745	569.308	33.7346	0.970344	0.006	-0.293893	0	1.39936	0
0.88	0	0	0	0.808908	0	-0.140851	0	0	0	-43.333	557.254	32.1209	0.973976	0.006	-0.294175	0	1.6204	0
0.89	0	0	0	0.83527	0	-0.140903	0	0	0	-39.3274	545.97	30.5188	0.977537	0.006	-0.294423	0	1.84902	0
0.9	0	0	0	0.861633	0	-0.140955	0	0	0	-35.4626	535.735	28.9688	0.980998	0.006	-0.294634	0	2.0836	0
0.91	0	0	0	0.887995	0	-0.141007	0	0	0	-31.7364	526.774	27.5102	0.984333	0.006	-0.294809	0	2.32187	0
0.92	0	0	0	0.914357	0	-0.141059	0	0	0	-28.1387	519.265	26.1796	0.987515	0.006	-0.294947	0	2.56105	0
0.93	0	0	0	0.940719	0	-0.141112	0	0	0	-24.6525	513.338	25.0101	0.990527	0.006	-0.295053	0	2.79808	0
0.94	0	0	0	0.967082	0	-0.141164	0	0	0	-21.2524	509.094	24.0318	0.993353	0.006	-0.29513	0	3.02985	0
0.95	0	0	0	0.993444	0	-0.141216	0	0	0	-17.9063	506.603	23.271	0.995983	0.006	-0.295184	0	3.25326	0
0.96	0	0	0	1.01981	0	-0.141268	0	0	0	-14.5756	505.914	22.7511	0.998413	0.006	-0.295222	0	3.46537	0
0.97	0	0	0	1.04617	0	-0.14132	0	0	0	-11.2177	507.054	22.4934	1.00064	0.006	-0.295251	0	3.66329	0
0.98	0	0	0	1.07253	0	-0.141372	0	0	0	-7.78692	510.023	22.5169	1.00267	0.006	-0.295278	0	3.8441	0
0.99	0	0	0	1.09889	0	-0.141425	0	0	0	-4.2368	514.794	22.838	1.00452	0.006	-0.295308	0	4.00478	0
1	0	0	0	1.12525	0	-0.141477	0	0	0	-0.521783	521.312	23.4686	1.0062	0.006	-0.295348	0	4.14227	0
1.01	0	0	0	1.15162	0	-0.141529	0	0	0	3.39971	529.483	24.4137	1.00773	0.006	-0.295403	0	4.25347	0
1.02	0	0	0	1.17798	0	-0.141581	0	0	0	7.56151	539.167	25.6684	1.00913	0.006	-0.295475	0	4.33538	0
